<mxfile host="Electron" modified="2024-07-15T15:26:42.885Z" agent="Mozilla/5.0 (Windows NT 10.0; Win64; x64) AppleWebKit/537.36 (KHTML, like Gecko) draw.io/24.6.4 Chrome/124.0.6367.207 Electron/30.0.6 Safari/537.36" etag="myE8nRNEMaRJtPhNuc70" version="24.6.4" type="device">
  <diagram name="Page-1" id="uyqIxYZqXuy16FVcP5KM">
    <mxGraphModel dx="2206" dy="1266" grid="1" gridSize="10" guides="1" tooltips="1" connect="1" arrows="1" fold="1" page="1" pageScale="1" pageWidth="1920" pageHeight="1200" background="#ffffff" math="0" shadow="0">
      <root>
        <mxCell id="0" />
        <mxCell id="1" parent="0" />
        <mxCell id="nEF1XoghxBKC_VmpoxMe-1" value="insecte" style="swimlane;fontStyle=1;childLayout=stackLayout;horizontal=1;startSize=26;horizontalStack=0;resizeParent=1;resizeParentMax=0;resizeLast=0;collapsible=1;marginBottom=0;whiteSpace=wrap;html=1;shadow=0;fontFamily=Verdana;fillColor=#cdeb8b;strokeColor=#36393d;" parent="1" vertex="1">
          <mxGeometry x="140" y="560" width="200" height="234" as="geometry" />
        </mxCell>
        <mxCell id="nEF1XoghxBKC_VmpoxMe-2" value="&lt;span&gt;id&lt;/span&gt;" style="text;align=left;verticalAlign=top;spacingLeft=4;spacingRight=4;overflow=hidden;rotatable=0;points=[[0,0.5],[1,0.5]];portConstraint=eastwest;whiteSpace=wrap;html=1;shadow=0;fontFamily=Verdana;fontStyle=0" parent="nEF1XoghxBKC_VmpoxMe-1" vertex="1">
          <mxGeometry y="26" width="200" height="26" as="geometry" />
        </mxCell>
        <mxCell id="nEF1XoghxBKC_VmpoxMe-3" value="nom_commun&lt;b&gt;&lt;i&gt;&amp;nbsp;&lt;/i&gt;&lt;/b&gt;" style="text;align=left;verticalAlign=top;spacingLeft=4;spacingRight=4;overflow=hidden;rotatable=0;points=[[0,0.5],[1,0.5]];portConstraint=eastwest;whiteSpace=wrap;html=1;shadow=0;fontFamily=Verdana;" parent="nEF1XoghxBKC_VmpoxMe-1" vertex="1">
          <mxGeometry y="52" width="200" height="26" as="geometry" />
        </mxCell>
        <mxCell id="nEF1XoghxBKC_VmpoxMe-5" value="nom_scientifique&lt;b&gt;&lt;i&gt;&amp;nbsp;&lt;/i&gt;&lt;/b&gt;" style="text;align=left;verticalAlign=top;spacingLeft=4;spacingRight=4;overflow=hidden;rotatable=0;points=[[0,0.5],[1,0.5]];portConstraint=eastwest;whiteSpace=wrap;html=1;shadow=0;fontFamily=Verdana;" parent="nEF1XoghxBKC_VmpoxMe-1" vertex="1">
          <mxGeometry y="78" width="200" height="26" as="geometry" />
        </mxCell>
        <mxCell id="nEF1XoghxBKC_VmpoxMe-4" value="ordre&amp;nbsp;" style="text;align=left;verticalAlign=top;spacingLeft=4;spacingRight=4;overflow=hidden;rotatable=0;points=[[0,0.5],[1,0.5]];portConstraint=eastwest;whiteSpace=wrap;html=1;shadow=0;fontFamily=Verdana;" parent="nEF1XoghxBKC_VmpoxMe-1" vertex="1">
          <mxGeometry y="104" width="200" height="26" as="geometry" />
        </mxCell>
        <mxCell id="nEF1XoghxBKC_VmpoxMe-6" value="famille&amp;nbsp;" style="text;align=left;verticalAlign=top;spacingLeft=4;spacingRight=4;overflow=hidden;rotatable=0;points=[[0,0.5],[1,0.5]];portConstraint=eastwest;whiteSpace=wrap;html=1;shadow=0;fontFamily=Verdana;" parent="nEF1XoghxBKC_VmpoxMe-1" vertex="1">
          <mxGeometry y="130" width="200" height="26" as="geometry" />
        </mxCell>
        <mxCell id="nEF1XoghxBKC_VmpoxMe-7" value="taille&amp;nbsp;" style="text;align=left;verticalAlign=top;spacingLeft=4;spacingRight=4;overflow=hidden;rotatable=0;points=[[0,0.5],[1,0.5]];portConstraint=eastwest;whiteSpace=wrap;html=1;shadow=0;fontFamily=Verdana;" parent="nEF1XoghxBKC_VmpoxMe-1" vertex="1">
          <mxGeometry y="156" width="200" height="26" as="geometry" />
        </mxCell>
        <mxCell id="nEF1XoghxBKC_VmpoxMe-8" value="couleur&amp;nbsp;" style="text;align=left;verticalAlign=top;spacingLeft=4;spacingRight=4;overflow=hidden;rotatable=0;points=[[0,0.5],[1,0.5]];portConstraint=eastwest;whiteSpace=wrap;html=1;shadow=0;fontFamily=Verdana;" parent="nEF1XoghxBKC_VmpoxMe-1" vertex="1">
          <mxGeometry y="182" width="200" height="26" as="geometry" />
        </mxCell>
        <mxCell id="nEF1XoghxBKC_VmpoxMe-9" value="description&amp;nbsp;" style="text;align=left;verticalAlign=top;spacingLeft=4;spacingRight=4;overflow=hidden;rotatable=0;points=[[0,0.5],[1,0.5]];portConstraint=eastwest;whiteSpace=wrap;html=1;shadow=0;fontFamily=Verdana;" parent="nEF1XoghxBKC_VmpoxMe-1" vertex="1">
          <mxGeometry y="208" width="200" height="26" as="geometry" />
        </mxCell>
        <mxCell id="nEF1XoghxBKC_VmpoxMe-11" value="insecte_proche__obs" style="swimlane;fontStyle=1;childLayout=stackLayout;horizontal=1;startSize=26;horizontalStack=0;resizeParent=1;resizeParentMax=0;resizeLast=0;collapsible=1;marginBottom=0;whiteSpace=wrap;html=1;shadow=0;fontFamily=Verdana;fillColor=#cdeb8b;strokeColor=#36393d;" parent="1" vertex="1">
          <mxGeometry x="460" y="210.25" width="200" height="52" as="geometry" />
        </mxCell>
        <mxCell id="nEF1XoghxBKC_VmpoxMe-12" value="&lt;span&gt;id&lt;/span&gt;" style="text;align=left;verticalAlign=top;spacingLeft=4;spacingRight=4;overflow=hidden;rotatable=0;points=[[0,0.5],[1,0.5]];portConstraint=eastwest;whiteSpace=wrap;html=1;shadow=0;fontFamily=Verdana;fontStyle=0" parent="nEF1XoghxBKC_VmpoxMe-11" vertex="1">
          <mxGeometry y="26" width="200" height="26" as="geometry" />
        </mxCell>
        <mxCell id="nEF1XoghxBKC_VmpoxMe-20" value="observation" style="swimlane;fontStyle=1;childLayout=stackLayout;horizontal=1;startSize=26;horizontalStack=0;resizeParent=1;resizeParentMax=0;resizeLast=0;collapsible=1;marginBottom=0;whiteSpace=wrap;html=1;shadow=0;fontFamily=Verdana;fillColor=#cdeb8b;strokeColor=#36393d;" parent="1" vertex="1">
          <mxGeometry x="1020" y="560" width="200" height="260" as="geometry" />
        </mxCell>
        <mxCell id="nEF1XoghxBKC_VmpoxMe-21" value="&lt;span&gt;id&lt;/span&gt;" style="text;align=left;verticalAlign=top;spacingLeft=4;spacingRight=4;overflow=hidden;rotatable=0;points=[[0,0.5],[1,0.5]];portConstraint=eastwest;whiteSpace=wrap;html=1;shadow=0;fontFamily=Verdana;fontStyle=0" parent="nEF1XoghxBKC_VmpoxMe-20" vertex="1">
          <mxGeometry y="26" width="200" height="26" as="geometry" />
        </mxCell>
        <mxCell id="nEF1XoghxBKC_VmpoxMe-23" value="date_creation&amp;nbsp;" style="text;align=left;verticalAlign=top;spacingLeft=4;spacingRight=4;overflow=hidden;rotatable=0;points=[[0,0.5],[1,0.5]];portConstraint=eastwest;whiteSpace=wrap;html=1;shadow=0;fontFamily=Verdana;" parent="nEF1XoghxBKC_VmpoxMe-20" vertex="1">
          <mxGeometry y="52" width="200" height="26" as="geometry" />
        </mxCell>
        <mxCell id="nEF1XoghxBKC_VmpoxMe-22" value="date_observation&amp;nbsp;" style="text;align=left;verticalAlign=top;spacingLeft=4;spacingRight=4;overflow=hidden;rotatable=0;points=[[0,0.5],[1,0.5]];portConstraint=eastwest;whiteSpace=wrap;html=1;shadow=0;fontFamily=Verdana;" parent="nEF1XoghxBKC_VmpoxMe-20" vertex="1">
          <mxGeometry y="78" width="200" height="26" as="geometry" />
        </mxCell>
        <mxCell id="nEF1XoghxBKC_VmpoxMe-24" value="temperature&amp;nbsp;" style="text;align=left;verticalAlign=top;spacingLeft=4;spacingRight=4;overflow=hidden;rotatable=0;points=[[0,0.5],[1,0.5]];portConstraint=eastwest;whiteSpace=wrap;html=1;shadow=0;fontFamily=Verdana;" parent="nEF1XoghxBKC_VmpoxMe-20" vertex="1">
          <mxGeometry y="104" width="200" height="26" as="geometry" />
        </mxCell>
        <mxCell id="nEF1XoghxBKC_VmpoxMe-25" value="taux_humidite&amp;nbsp;" style="text;align=left;verticalAlign=top;spacingLeft=4;spacingRight=4;overflow=hidden;rotatable=0;points=[[0,0.5],[1,0.5]];portConstraint=eastwest;whiteSpace=wrap;html=1;shadow=0;fontFamily=Verdana;" parent="nEF1XoghxBKC_VmpoxMe-20" vertex="1">
          <mxGeometry y="130" width="200" height="26" as="geometry" />
        </mxCell>
        <mxCell id="nEF1XoghxBKC_VmpoxMe-26" value="latitude&amp;nbsp;" style="text;align=left;verticalAlign=top;spacingLeft=4;spacingRight=4;overflow=hidden;rotatable=0;points=[[0,0.5],[1,0.5]];portConstraint=eastwest;whiteSpace=wrap;html=1;shadow=0;fontFamily=Verdana;" parent="nEF1XoghxBKC_VmpoxMe-20" vertex="1">
          <mxGeometry y="156" width="200" height="26" as="geometry" />
        </mxCell>
        <mxCell id="nEF1XoghxBKC_VmpoxMe-27" value="longitude&amp;nbsp;" style="text;align=left;verticalAlign=top;spacingLeft=4;spacingRight=4;overflow=hidden;rotatable=0;points=[[0,0.5],[1,0.5]];portConstraint=eastwest;whiteSpace=wrap;html=1;shadow=0;fontFamily=Verdana;" parent="nEF1XoghxBKC_VmpoxMe-20" vertex="1">
          <mxGeometry y="182" width="200" height="26" as="geometry" />
        </mxCell>
        <mxCell id="nEF1XoghxBKC_VmpoxMe-28" value="organisme_hote&amp;nbsp;" style="text;align=left;verticalAlign=top;spacingLeft=4;spacingRight=4;overflow=hidden;rotatable=0;points=[[0,0.5],[1,0.5]];portConstraint=eastwest;whiteSpace=wrap;html=1;shadow=0;fontFamily=Verdana;" parent="nEF1XoghxBKC_VmpoxMe-20" vertex="1">
          <mxGeometry y="208" width="200" height="26" as="geometry" />
        </mxCell>
        <mxCell id="nEF1XoghxBKC_VmpoxMe-29" value="description&amp;nbsp;" style="text;align=left;verticalAlign=top;spacingLeft=4;spacingRight=4;overflow=hidden;rotatable=0;points=[[0,0.5],[1,0.5]];portConstraint=eastwest;whiteSpace=wrap;html=1;shadow=0;fontFamily=Verdana;" parent="nEF1XoghxBKC_VmpoxMe-20" vertex="1">
          <mxGeometry y="234" width="200" height="26" as="geometry" />
        </mxCell>
        <mxCell id="nEF1XoghxBKC_VmpoxMe-32" value="utilisateurice" style="swimlane;fontStyle=1;childLayout=stackLayout;horizontal=1;startSize=26;horizontalStack=0;resizeParent=1;resizeParentMax=0;resizeLast=0;collapsible=1;marginBottom=0;whiteSpace=wrap;html=1;shadow=0;fontFamily=Verdana;fillColor=#cdeb8b;strokeColor=#36393d;" parent="1" vertex="1">
          <mxGeometry x="1700" y="560" width="200" height="208" as="geometry" />
        </mxCell>
        <mxCell id="nEF1XoghxBKC_VmpoxMe-33" value="&lt;span&gt;id&lt;/span&gt;" style="text;align=left;verticalAlign=top;spacingLeft=4;spacingRight=4;overflow=hidden;rotatable=0;points=[[0,0.5],[1,0.5]];portConstraint=eastwest;whiteSpace=wrap;html=1;shadow=0;fontFamily=Verdana;fontStyle=0" parent="nEF1XoghxBKC_VmpoxMe-32" vertex="1">
          <mxGeometry y="26" width="200" height="26" as="geometry" />
        </mxCell>
        <mxCell id="nEF1XoghxBKC_VmpoxMe-34" value="date_creation&amp;nbsp;" style="text;align=left;verticalAlign=top;spacingLeft=4;spacingRight=4;overflow=hidden;rotatable=0;points=[[0,0.5],[1,0.5]];portConstraint=eastwest;whiteSpace=wrap;html=1;shadow=0;fontFamily=Verdana;" parent="nEF1XoghxBKC_VmpoxMe-32" vertex="1">
          <mxGeometry y="52" width="200" height="26" as="geometry" />
        </mxCell>
        <mxCell id="nEF1XoghxBKC_VmpoxMe-35" value="date_edition&amp;nbsp;" style="text;align=left;verticalAlign=top;spacingLeft=4;spacingRight=4;overflow=hidden;rotatable=0;points=[[0,0.5],[1,0.5]];portConstraint=eastwest;whiteSpace=wrap;html=1;shadow=0;fontFamily=Verdana;" parent="nEF1XoghxBKC_VmpoxMe-32" vertex="1">
          <mxGeometry y="78" width="200" height="26" as="geometry" />
        </mxCell>
        <mxCell id="nEF1XoghxBKC_VmpoxMe-36" value="mail&amp;nbsp;" style="text;align=left;verticalAlign=top;spacingLeft=4;spacingRight=4;overflow=hidden;rotatable=0;points=[[0,0.5],[1,0.5]];portConstraint=eastwest;whiteSpace=wrap;html=1;shadow=0;fontFamily=Verdana;" parent="nEF1XoghxBKC_VmpoxMe-32" vertex="1">
          <mxGeometry y="104" width="200" height="26" as="geometry" />
        </mxCell>
        <mxCell id="nEF1XoghxBKC_VmpoxMe-37" value="pseudo&amp;nbsp;" style="text;align=left;verticalAlign=top;spacingLeft=4;spacingRight=4;overflow=hidden;rotatable=0;points=[[0,0.5],[1,0.5]];portConstraint=eastwest;whiteSpace=wrap;html=1;shadow=0;fontFamily=Verdana;" parent="nEF1XoghxBKC_VmpoxMe-32" vertex="1">
          <mxGeometry y="130" width="200" height="26" as="geometry" />
        </mxCell>
        <mxCell id="nEF1XoghxBKC_VmpoxMe-38" value="mot_de_passe&amp;nbsp;" style="text;align=left;verticalAlign=top;spacingLeft=4;spacingRight=4;overflow=hidden;rotatable=0;points=[[0,0.5],[1,0.5]];portConstraint=eastwest;whiteSpace=wrap;html=1;shadow=0;fontFamily=Verdana;" parent="nEF1XoghxBKC_VmpoxMe-32" vertex="1">
          <mxGeometry y="156" width="200" height="26" as="geometry" />
        </mxCell>
        <mxCell id="nEF1XoghxBKC_VmpoxMe-39" value="image_profil&amp;nbsp;" style="text;align=left;verticalAlign=top;spacingLeft=4;spacingRight=4;overflow=hidden;rotatable=0;points=[[0,0.5],[1,0.5]];portConstraint=eastwest;whiteSpace=wrap;html=1;shadow=0;fontFamily=Verdana;" parent="nEF1XoghxBKC_VmpoxMe-32" vertex="1">
          <mxGeometry y="182" width="200" height="26" as="geometry" />
        </mxCell>
        <mxCell id="nEF1XoghxBKC_VmpoxMe-41" value="obs__photo" style="swimlane;fontStyle=1;childLayout=stackLayout;horizontal=1;startSize=26;horizontalStack=0;resizeParent=1;resizeParentMax=0;resizeLast=0;collapsible=1;marginBottom=0;whiteSpace=wrap;html=1;shadow=0;fontFamily=Verdana;fillColor=#cdeb8b;strokeColor=#36393d;" parent="1" vertex="1">
          <mxGeometry x="1700" y="275.25" width="200" height="78" as="geometry" />
        </mxCell>
        <mxCell id="nEF1XoghxBKC_VmpoxMe-42" value="&lt;span&gt;id&lt;/span&gt;" style="text;align=left;verticalAlign=top;spacingLeft=4;spacingRight=4;overflow=hidden;rotatable=0;points=[[0,0.5],[1,0.5]];portConstraint=eastwest;whiteSpace=wrap;html=1;shadow=0;fontFamily=Verdana;fontStyle=0" parent="nEF1XoghxBKC_VmpoxMe-41" vertex="1">
          <mxGeometry y="26" width="200" height="26" as="geometry" />
        </mxCell>
        <mxCell id="nEF1XoghxBKC_VmpoxMe-43" value="uuid" style="text;align=left;verticalAlign=top;spacingLeft=4;spacingRight=4;overflow=hidden;rotatable=0;points=[[0,0.5],[1,0.5]];portConstraint=eastwest;whiteSpace=wrap;html=1;shadow=0;fontFamily=Verdana;" parent="nEF1XoghxBKC_VmpoxMe-41" vertex="1">
          <mxGeometry y="52" width="200" height="26" as="geometry" />
        </mxCell>
        <mxCell id="Y3H-pAVvW8odEqC_Cy9A-4" value="intègrer" style="swimlane;fontStyle=1;childLayout=stackLayout;horizontal=1;startSize=26;horizontalStack=0;resizeParent=1;resizeParentMax=0;resizeLast=0;collapsible=1;marginBottom=0;whiteSpace=wrap;html=1;shadow=0;fontFamily=Verdana;rounded=1;glass=0;fillColor=#ffff88;strokeColor=#36393d;" parent="1" vertex="1">
          <mxGeometry x="620" y="640" width="120" height="56" as="geometry" />
        </mxCell>
        <mxCell id="Y3H-pAVvW8odEqC_Cy9A-11" value="" style="endArrow=classic;html=1;rounded=0;entryX=1;entryY=0.75;entryDx=0;entryDy=0;exitX=0;exitY=0.5;exitDx=0;exitDy=0;strokeWidth=3;" parent="1" source="nEF1XoghxBKC_VmpoxMe-22" target="Y3H-pAVvW8odEqC_Cy9A-4" edge="1">
          <mxGeometry width="50" height="50" relative="1" as="geometry">
            <mxPoint x="960" y="700" as="sourcePoint" />
            <mxPoint x="690" y="820" as="targetPoint" />
          </mxGeometry>
        </mxCell>
        <mxCell id="Y3H-pAVvW8odEqC_Cy9A-12" value="" style="endArrow=classic;html=1;rounded=0;entryX=0;entryY=0.25;entryDx=0;entryDy=0;exitX=1;exitY=0.003;exitDx=0;exitDy=0;exitPerimeter=0;strokeWidth=3;" parent="1" source="nEF1XoghxBKC_VmpoxMe-2" target="Y3H-pAVvW8odEqC_Cy9A-4" edge="1">
          <mxGeometry width="50" height="50" relative="1" as="geometry">
            <mxPoint x="490" y="560" as="sourcePoint" />
            <mxPoint x="350" y="696" as="targetPoint" />
          </mxGeometry>
        </mxCell>
        <mxCell id="Y3H-pAVvW8odEqC_Cy9A-13" value="" style="endArrow=classic;html=1;rounded=0;entryX=0;entryY=0.5;entryDx=0;entryDy=0;exitX=1;exitY=0.25;exitDx=0;exitDy=0;" parent="1" source="Y3H-pAVvW8odEqC_Cy9A-4" target="nEF1XoghxBKC_VmpoxMe-23" edge="1">
          <mxGeometry width="50" height="50" relative="1" as="geometry">
            <mxPoint x="660" y="530" as="sourcePoint" />
            <mxPoint x="800" y="636" as="targetPoint" />
          </mxGeometry>
        </mxCell>
        <mxCell id="Y3H-pAVvW8odEqC_Cy9A-14" value="" style="endArrow=classic;html=1;rounded=0;entryX=1;entryY=1.001;entryDx=0;entryDy=0;exitX=0;exitY=0.75;exitDx=0;exitDy=0;entryPerimeter=0;" parent="1" source="Y3H-pAVvW8odEqC_Cy9A-4" target="nEF1XoghxBKC_VmpoxMe-2" edge="1">
          <mxGeometry width="50" height="50" relative="1" as="geometry">
            <mxPoint x="630" y="926" as="sourcePoint" />
            <mxPoint x="490" y="750" as="targetPoint" />
          </mxGeometry>
        </mxCell>
        <mxCell id="Y3H-pAVvW8odEqC_Cy9A-15" value="créer" style="swimlane;fontStyle=1;childLayout=stackLayout;horizontal=1;startSize=26;horizontalStack=0;resizeParent=1;resizeParentMax=0;resizeLast=0;collapsible=1;marginBottom=0;whiteSpace=wrap;html=1;shadow=0;fontFamily=Verdana;rounded=1;glass=0;fillColor=#ffff88;strokeColor=#36393d;" parent="1" vertex="1">
          <mxGeometry x="1400" y="636" width="120" height="56" as="geometry" />
        </mxCell>
        <mxCell id="Y3H-pAVvW8odEqC_Cy9A-18" value="0,N" style="rounded=1;whiteSpace=wrap;html=1;fillColor=#ffe6cc;strokeColor=#d79b00;glass=1;fontStyle=1" parent="1" vertex="1">
          <mxGeometry x="460" y="590" width="40" height="40" as="geometry" />
        </mxCell>
        <mxCell id="Y3H-pAVvW8odEqC_Cy9A-19" value="1,1" style="rounded=1;whiteSpace=wrap;html=1;fillColor=#ffe6cc;strokeColor=#d79b00;glass=1;shadow=0;fontStyle=1" parent="1" vertex="1">
          <mxGeometry x="860" y="650" width="40" height="40" as="geometry" />
        </mxCell>
        <mxCell id="Y3H-pAVvW8odEqC_Cy9A-8" value="1 insecte est intégré dans&amp;nbsp;&lt;div&gt;&lt;br&gt;&lt;/div&gt;&lt;div&gt;0 ou N observations&lt;/div&gt;" style="text;html=1;align=center;verticalAlign=middle;whiteSpace=wrap;rounded=0;" parent="1" vertex="1">
          <mxGeometry x="405" y="540" width="150" height="50" as="geometry" />
        </mxCell>
        <mxCell id="Y3H-pAVvW8odEqC_Cy9A-9" value="1 observation intègre&amp;nbsp;&lt;div&gt;&lt;br&gt;&lt;/div&gt;&lt;div&gt;1 seul insecte à la fois&lt;/div&gt;" style="text;html=1;align=center;verticalAlign=middle;whiteSpace=wrap;rounded=0;" parent="1" vertex="1">
          <mxGeometry x="815" y="690" width="130" height="50" as="geometry" />
        </mxCell>
        <mxCell id="Y3H-pAVvW8odEqC_Cy9A-16" value="1 observation est créée par&amp;nbsp;&lt;div&gt;&lt;br&gt;&lt;/div&gt;&lt;div&gt;1 seul·e utilisateurice à la fois&lt;/div&gt;" style="text;html=1;align=center;verticalAlign=middle;whiteSpace=wrap;rounded=0;" parent="1" vertex="1">
          <mxGeometry x="1240" y="540" width="170" height="50" as="geometry" />
        </mxCell>
        <mxCell id="Y3H-pAVvW8odEqC_Cy9A-17" value="1 utilisateurice créé&amp;nbsp;&lt;div&gt;&lt;br&gt;&lt;/div&gt;&lt;div&gt;0 ou N observations&lt;/div&gt;" style="text;html=1;align=center;verticalAlign=middle;whiteSpace=wrap;rounded=0;" parent="1" vertex="1">
          <mxGeometry x="1560" y="676" width="110" height="50" as="geometry" />
        </mxCell>
        <mxCell id="Y3H-pAVvW8odEqC_Cy9A-21" value="" style="endArrow=classic;html=1;rounded=0;entryX=0;entryY=0.25;entryDx=0;entryDy=0;exitX=1;exitY=0.006;exitDx=0;exitDy=0;exitPerimeter=0;strokeWidth=3;" parent="1" source="nEF1XoghxBKC_VmpoxMe-21" target="Y3H-pAVvW8odEqC_Cy9A-15" edge="1">
          <mxGeometry width="50" height="50" relative="1" as="geometry">
            <mxPoint x="1270" y="763.9" as="sourcePoint" />
            <mxPoint x="1550" y="695.9" as="targetPoint" />
          </mxGeometry>
        </mxCell>
        <mxCell id="Y3H-pAVvW8odEqC_Cy9A-23" value="" style="endArrow=classic;html=1;rounded=0;exitX=-0.001;exitY=0.994;exitDx=0;exitDy=0;exitPerimeter=0;strokeWidth=3;entryX=1;entryY=0.75;entryDx=0;entryDy=0;" parent="1" source="nEF1XoghxBKC_VmpoxMe-33" target="Y3H-pAVvW8odEqC_Cy9A-15" edge="1">
          <mxGeometry width="50" height="50" relative="1" as="geometry">
            <mxPoint x="1200" y="652.92" as="sourcePoint" />
            <mxPoint x="1620" y="678" as="targetPoint" />
          </mxGeometry>
        </mxCell>
        <mxCell id="Y3H-pAVvW8odEqC_Cy9A-24" value="" style="endArrow=classic;html=1;rounded=0;entryX=0.001;entryY=0.009;entryDx=0;entryDy=0;exitX=1;exitY=0.25;exitDx=0;exitDy=0;entryPerimeter=0;" parent="1" source="Y3H-pAVvW8odEqC_Cy9A-15" target="nEF1XoghxBKC_VmpoxMe-33" edge="1">
          <mxGeometry width="50" height="50" relative="1" as="geometry">
            <mxPoint x="1620" y="640" as="sourcePoint" />
            <mxPoint x="1900" y="572" as="targetPoint" />
          </mxGeometry>
        </mxCell>
        <mxCell id="Y3H-pAVvW8odEqC_Cy9A-25" value="" style="endArrow=classic;html=1;rounded=0;entryX=0.999;entryY=1.006;entryDx=0;entryDy=0;exitX=0;exitY=0.75;exitDx=0;exitDy=0;entryPerimeter=0;" parent="1" source="Y3H-pAVvW8odEqC_Cy9A-15" target="nEF1XoghxBKC_VmpoxMe-21" edge="1">
          <mxGeometry width="50" height="50" relative="1" as="geometry">
            <mxPoint x="1370" y="836" as="sourcePoint" />
            <mxPoint x="1650" y="768" as="targetPoint" />
          </mxGeometry>
        </mxCell>
        <mxCell id="Y3H-pAVvW8odEqC_Cy9A-26" value="1,1" style="rounded=1;whiteSpace=wrap;html=1;fillColor=#ffe6cc;strokeColor=#d79b00;glass=1;shadow=0;fontStyle=1" parent="1" vertex="1">
          <mxGeometry x="1305" y="590" width="40" height="40" as="geometry" />
        </mxCell>
        <mxCell id="Y3H-pAVvW8odEqC_Cy9A-27" value="0,N" style="rounded=1;whiteSpace=wrap;html=1;fillColor=#ffe6cc;strokeColor=#d79b00;glass=1;fontStyle=1" parent="1" vertex="1">
          <mxGeometry x="1595" y="636" width="40" height="40" as="geometry" />
        </mxCell>
        <mxCell id="Y3H-pAVvW8odEqC_Cy9A-28" value="possèder" style="swimlane;fontStyle=1;childLayout=stackLayout;horizontal=1;startSize=26;horizontalStack=0;resizeParent=1;resizeParentMax=0;resizeLast=0;collapsible=1;marginBottom=0;whiteSpace=wrap;html=1;shadow=0;fontFamily=Verdana;rounded=1;glass=0;fillColor=#ffff88;strokeColor=#36393d;" parent="1" vertex="1">
          <mxGeometry x="1300" y="273.25" width="120" height="56" as="geometry" />
        </mxCell>
        <mxCell id="Y3H-pAVvW8odEqC_Cy9A-30" value="" style="endArrow=classic;html=1;rounded=0;entryX=0.75;entryY=1;entryDx=0;entryDy=0;exitX=0.75;exitY=0;exitDx=0;exitDy=0;strokeWidth=3;" parent="1" source="nEF1XoghxBKC_VmpoxMe-20" target="Y3H-pAVvW8odEqC_Cy9A-28" edge="1">
          <mxGeometry width="50" height="50" relative="1" as="geometry">
            <mxPoint x="1110" y="540" as="sourcePoint" />
            <mxPoint x="1475" y="483.84000000000003" as="targetPoint" />
          </mxGeometry>
        </mxCell>
        <mxCell id="Y3H-pAVvW8odEqC_Cy9A-31" value="1 observation possède&amp;nbsp;&lt;div&gt;&lt;br&gt;&lt;/div&gt;&lt;div&gt;0 ou N photos&lt;/div&gt;" style="text;html=1;align=left;verticalAlign=middle;whiteSpace=wrap;rounded=0;" parent="1" vertex="1">
          <mxGeometry x="1360" y="376.5" width="130" height="45" as="geometry" />
        </mxCell>
        <mxCell id="Y3H-pAVvW8odEqC_Cy9A-32" value="0,N" style="rounded=1;whiteSpace=wrap;html=1;fillColor=#ffe6cc;strokeColor=#d79b00;glass=1;fontStyle=1" parent="1" vertex="1">
          <mxGeometry x="1310" y="379" width="40" height="40" as="geometry" />
        </mxCell>
        <mxCell id="Y3H-pAVvW8odEqC_Cy9A-33" value="" style="endArrow=classic;html=1;rounded=0;exitX=0.25;exitY=1;exitDx=0;exitDy=0;entryX=0.25;entryY=0;entryDx=0;entryDy=0;" parent="1" source="Y3H-pAVvW8odEqC_Cy9A-28" target="nEF1XoghxBKC_VmpoxMe-20" edge="1">
          <mxGeometry width="50" height="50" relative="1" as="geometry">
            <mxPoint x="1000" y="370" as="sourcePoint" />
            <mxPoint x="1040" y="510" as="targetPoint" />
          </mxGeometry>
        </mxCell>
        <mxCell id="Y3H-pAVvW8odEqC_Cy9A-34" value="" style="endArrow=classic;html=1;rounded=0;entryX=1;entryY=0.25;entryDx=0;entryDy=0;exitX=-0.001;exitY=0.081;exitDx=0;exitDy=0;strokeWidth=3;exitPerimeter=0;" parent="1" source="nEF1XoghxBKC_VmpoxMe-41" target="Y3H-pAVvW8odEqC_Cy9A-28" edge="1">
          <mxGeometry width="50" height="50" relative="1" as="geometry">
            <mxPoint x="1190" y="390" as="sourcePoint" />
            <mxPoint x="1210" y="270" as="targetPoint" />
          </mxGeometry>
        </mxCell>
        <mxCell id="Y3H-pAVvW8odEqC_Cy9A-35" value="" style="endArrow=classic;html=1;rounded=0;entryX=0;entryY=0.5;entryDx=0;entryDy=0;exitX=1;exitY=0.75;exitDx=0;exitDy=0;" parent="1" source="Y3H-pAVvW8odEqC_Cy9A-28" target="nEF1XoghxBKC_VmpoxMe-42" edge="1">
          <mxGeometry width="50" height="50" relative="1" as="geometry">
            <mxPoint x="1240" y="400" as="sourcePoint" />
            <mxPoint x="1380" y="416" as="targetPoint" />
          </mxGeometry>
        </mxCell>
        <mxCell id="Y3H-pAVvW8odEqC_Cy9A-36" value="1 photo est possédée par&amp;nbsp;&lt;div&gt;&lt;br&gt;&lt;div&gt;1 seule observation à la fois&lt;/div&gt;&lt;/div&gt;" style="text;html=1;align=center;verticalAlign=middle;whiteSpace=wrap;rounded=0;" parent="1" vertex="1">
          <mxGeometry x="1462.5" y="210.25" width="155" height="53" as="geometry" />
        </mxCell>
        <mxCell id="Y3H-pAVvW8odEqC_Cy9A-37" value="1,1" style="rounded=1;whiteSpace=wrap;html=1;fillColor=#ffe6cc;strokeColor=#d79b00;glass=1;shadow=0;fontStyle=1" parent="1" vertex="1">
          <mxGeometry x="1520" y="263.25" width="40" height="40" as="geometry" />
        </mxCell>
        <mxCell id="Y3H-pAVvW8odEqC_Cy9A-38" value="engendrer" style="swimlane;fontStyle=1;childLayout=stackLayout;horizontal=1;startSize=26;horizontalStack=0;resizeParent=1;resizeParentMax=0;resizeLast=0;collapsible=1;marginBottom=0;whiteSpace=wrap;html=1;shadow=0;fontFamily=Verdana;rounded=1;glass=0;fillColor=#ffff88;strokeColor=#36393d;" parent="1" vertex="1">
          <mxGeometry x="180" y="371" width="120" height="56" as="geometry" />
        </mxCell>
        <mxCell id="Y3H-pAVvW8odEqC_Cy9A-39" value="1 insecte peut engendrer&lt;div&gt;&lt;br&gt;&lt;div&gt;0 ou N insectes proches&lt;/div&gt;&lt;/div&gt;" style="text;html=1;align=right;verticalAlign=middle;whiteSpace=wrap;rounded=0;" parent="1" vertex="1">
          <mxGeometry x="20" y="475" width="140" height="30" as="geometry" />
        </mxCell>
        <mxCell id="Y3H-pAVvW8odEqC_Cy9A-40" value="" style="endArrow=classic;html=1;rounded=0;entryX=0.25;entryY=1;entryDx=0;entryDy=0;exitX=0.25;exitY=0;exitDx=0;exitDy=0;strokeWidth=3;" parent="1" source="nEF1XoghxBKC_VmpoxMe-1" target="Y3H-pAVvW8odEqC_Cy9A-38" edge="1">
          <mxGeometry width="50" height="50" relative="1" as="geometry">
            <mxPoint x="180" y="492" as="sourcePoint" />
            <mxPoint x="460" y="560" as="targetPoint" />
          </mxGeometry>
        </mxCell>
        <mxCell id="Y3H-pAVvW8odEqC_Cy9A-41" value="" style="endArrow=classic;html=1;rounded=0;entryX=0.75;entryY=0;entryDx=0;entryDy=0;exitX=0.75;exitY=1;exitDx=0;exitDy=0;" parent="1" source="Y3H-pAVvW8odEqC_Cy9A-38" target="nEF1XoghxBKC_VmpoxMe-1" edge="1">
          <mxGeometry width="50" height="50" relative="1" as="geometry">
            <mxPoint x="520" y="574.97" as="sourcePoint" />
            <mxPoint x="240" y="504.97" as="targetPoint" />
          </mxGeometry>
        </mxCell>
        <mxCell id="Y3H-pAVvW8odEqC_Cy9A-42" value="0,N" style="rounded=1;whiteSpace=wrap;html=1;fillColor=#ffe6cc;strokeColor=#d79b00;glass=1;shadow=0;fontStyle=1" parent="1" vertex="1">
          <mxGeometry x="170" y="470" width="40" height="40" as="geometry" />
        </mxCell>
        <mxCell id="Y3H-pAVvW8odEqC_Cy9A-43" value="" style="endArrow=classic;html=1;rounded=0;entryX=1;entryY=0.75;entryDx=0;entryDy=0;exitX=0;exitY=0.5;exitDx=0;exitDy=0;strokeWidth=3;" parent="1" source="nEF1XoghxBKC_VmpoxMe-12" target="Y3H-pAVvW8odEqC_Cy9A-38" edge="1">
          <mxGeometry width="50" height="50" relative="1" as="geometry">
            <mxPoint x="340" y="557" as="sourcePoint" />
            <mxPoint x="360" y="424" as="targetPoint" />
          </mxGeometry>
        </mxCell>
        <mxCell id="Y3H-pAVvW8odEqC_Cy9A-44" value="" style="endArrow=classic;html=1;rounded=0;entryX=0;entryY=0.25;entryDx=0;entryDy=0;exitX=1;exitY=0.25;exitDx=0;exitDy=0;" parent="1" source="Y3H-pAVvW8odEqC_Cy9A-38" target="nEF1XoghxBKC_VmpoxMe-11" edge="1">
          <mxGeometry width="50" height="50" relative="1" as="geometry">
            <mxPoint x="380" y="402" as="sourcePoint" />
            <mxPoint x="400" y="535" as="targetPoint" />
          </mxGeometry>
        </mxCell>
        <mxCell id="Y3H-pAVvW8odEqC_Cy9A-45" value="1 insecte proche est engendré par&lt;div&gt;&amp;nbsp;&lt;div&gt;1 seul insecte à la fois&lt;/div&gt;&lt;/div&gt;" style="text;html=1;align=left;verticalAlign=middle;whiteSpace=wrap;rounded=0;" parent="1" vertex="1">
          <mxGeometry x="390" y="350.25" width="190" height="46" as="geometry" />
        </mxCell>
        <mxCell id="Y3H-pAVvW8odEqC_Cy9A-46" value="1,1" style="rounded=1;whiteSpace=wrap;html=1;fillColor=#ffe6cc;strokeColor=#d79b00;glass=1;fontStyle=1" parent="1" vertex="1">
          <mxGeometry x="340" y="353.25" width="40" height="40" as="geometry" />
        </mxCell>
        <mxCell id="Y3H-pAVvW8odEqC_Cy9A-47" value="contenir" style="swimlane;fontStyle=1;childLayout=stackLayout;horizontal=1;startSize=26;horizontalStack=0;resizeParent=1;resizeParentMax=0;resizeLast=0;collapsible=1;marginBottom=0;whiteSpace=wrap;html=1;shadow=0;fontFamily=Verdana;rounded=1;glass=0;fillColor=#ffff88;strokeColor=#36393d;" parent="1" vertex="1">
          <mxGeometry x="810" y="370.5" width="120" height="56" as="geometry" />
        </mxCell>
        <mxCell id="Y3H-pAVvW8odEqC_Cy9A-48" value="" style="endArrow=classic;html=1;rounded=0;entryX=0;entryY=0.25;entryDx=0;entryDy=0;exitX=1;exitY=0.25;exitDx=0;exitDy=0;strokeWidth=3;" parent="1" source="nEF1XoghxBKC_VmpoxMe-11" target="Y3H-pAVvW8odEqC_Cy9A-47" edge="1">
          <mxGeometry width="50" height="50" relative="1" as="geometry">
            <mxPoint x="680" y="379" as="sourcePoint" />
            <mxPoint x="881" y="340" as="targetPoint" />
          </mxGeometry>
        </mxCell>
        <mxCell id="Y3H-pAVvW8odEqC_Cy9A-49" value="" style="endArrow=classic;html=1;rounded=0;entryX=0;entryY=0;entryDx=0;entryDy=0;exitX=1;exitY=0.25;exitDx=0;exitDy=0;strokeWidth=1;" parent="1" source="Y3H-pAVvW8odEqC_Cy9A-47" target="nEF1XoghxBKC_VmpoxMe-20" edge="1">
          <mxGeometry width="50" height="50" relative="1" as="geometry">
            <mxPoint x="620" y="495.92" as="sourcePoint" />
            <mxPoint x="900" y="563.92" as="targetPoint" />
          </mxGeometry>
        </mxCell>
        <mxCell id="Y3H-pAVvW8odEqC_Cy9A-50" value="" style="endArrow=classic;html=1;rounded=0;entryX=1;entryY=0.5;entryDx=0;entryDy=0;exitX=0;exitY=0.75;exitDx=0;exitDy=0;strokeWidth=1;" parent="1" source="Y3H-pAVvW8odEqC_Cy9A-47" target="nEF1XoghxBKC_VmpoxMe-12" edge="1">
          <mxGeometry width="50" height="50" relative="1" as="geometry">
            <mxPoint x="990" y="479.95" as="sourcePoint" />
            <mxPoint x="710" y="549.95" as="targetPoint" />
          </mxGeometry>
        </mxCell>
        <mxCell id="Y3H-pAVvW8odEqC_Cy9A-51" value="" style="endArrow=classic;html=1;rounded=0;entryX=1;entryY=0.75;entryDx=0;entryDy=0;exitX=0;exitY=0.5;exitDx=0;exitDy=0;strokeWidth=3;" parent="1" source="nEF1XoghxBKC_VmpoxMe-21" target="Y3H-pAVvW8odEqC_Cy9A-47" edge="1">
          <mxGeometry width="50" height="50" relative="1" as="geometry">
            <mxPoint x="850" y="574.97" as="sourcePoint" />
            <mxPoint x="570" y="504.97" as="targetPoint" />
          </mxGeometry>
        </mxCell>
        <mxCell id="Y3H-pAVvW8odEqC_Cy9A-53" value="1 observation contient&lt;div&gt;&lt;br&gt;&lt;/div&gt;&lt;div&gt;0 ou N insectes proches&lt;/div&gt;" style="text;html=1;align=right;verticalAlign=middle;whiteSpace=wrap;rounded=0;" parent="1" vertex="1">
          <mxGeometry x="780" y="467.5" width="140" height="50" as="geometry" />
        </mxCell>
        <mxCell id="Y3H-pAVvW8odEqC_Cy9A-54" value="0,N" style="rounded=1;whiteSpace=wrap;html=1;fillColor=#ffe6cc;strokeColor=#d79b00;glass=1;fontStyle=1" parent="1" vertex="1">
          <mxGeometry x="930" y="472.5" width="40" height="40" as="geometry" />
        </mxCell>
        <mxCell id="Y3H-pAVvW8odEqC_Cy9A-55" value="1 insecte proche est contenu dans&lt;div&gt;&lt;br&gt;&lt;/div&gt;&lt;div&gt;1 seule observation à la fois&lt;/div&gt;" style="text;html=1;align=left;verticalAlign=middle;whiteSpace=wrap;rounded=0;" parent="1" vertex="1">
          <mxGeometry x="780" y="269.25" width="200" height="50" as="geometry" />
        </mxCell>
        <mxCell id="Y3H-pAVvW8odEqC_Cy9A-57" value="1,1" style="rounded=1;whiteSpace=wrap;html=1;fillColor=#ffe6cc;strokeColor=#d79b00;glass=1;shadow=0;fontStyle=1" parent="1" vertex="1">
          <mxGeometry x="730" y="274.25" width="40" height="40" as="geometry" />
        </mxCell>
      </root>
    </mxGraphModel>
  </diagram>
</mxfile>
